<?xml version="1.0" encoding="UTF-8"?>
<svg version="1.1" viewBox="0 0 800 800" width="1280" height="1280" xmlns="http://www.w3.org/2000/svg">
<path transform="translate(616,178)" d="m0 0h16l26 2 26 5 19 7 13 7 10 8 7 7 6 10 4 12 1 7v9l-2 13-6 18 12-5 20-9h2l-2 4-12 16-10 13 1 4 10 11 7 8 4 6-12-1-21-3h-8l-10 14-14 19 2 4 13 15 18 22 1 2v9l-16 83v12l12 2 5 4 7 10v10l-7 8-11 9-3 2-3 24-3 6-7 4-8-1-12-9-5 1-14 7h-8l-5-3-8-10-1-2v-9l8-18-2-5-6-5-2 5-4 3-4 1h-31l-7-1-4 1h-31l-7-1-4 1h-31l-7-3-5-5-8 7-4 1h-123l-9 2-47 16-37 10-38 8-26 4-25 2h-31l-26-3-20-5-19-8-14-10-9-10-8-14-3-11-1-8v-10l2-14 5-16 7-16 11-18 9-12 9-11 12-14 29-29-9-11-12-14-2-4 1-7 15-34 16-37 10-23 5-4h68l10 4 9 10 7-6 14-7 4-1h49l8 3 7 5 4-1 2-5 3-2 12-1 29-12 42-15 36-11 36-9 34-7 29-4zm14 17-29 2-33 5-34 7-31 8-39 12-33 12 10 8 4 4 4-10 3-2h66l5 4 9 11 12 14 4 6 13 79 1 2 31 1h104l4 1 1-6 1-19v-12l-38-5 16-8 23-10 1-8 1-26 1-4 13 15 8 10 2-1 5-16 1-6v-18l-3-11-4-8-9-10-8-6-12-6-17-5-19-3-12-1zm-454 53-7 14-15 35-17 39-2 7h64l10-2 10-5 9-9 6-12 1-4v-10l-4-6 6-4 8-9 5-12 1-5v-7l-4-6-5-3-5-1zm112 0-10 3-6 4-8 8-8 16-15 39-2 10 2 9 4 4 7 2h46l10-3 8-6 7-8 6-13 14-41 1-12-3-7-5-4-5-1zm73 0-10 28-22 65v2h65l9-2 8-4 9-9 5-11 1-4v-10l-3-5-2-3 8-6 7-14 1-4v-13l-4-6-5-3-5-1zm94 0-3 8-24 81-1 6h34l7-24 15-54v-4h12l-12 44v11l4 27h43l-1-12-13-80-1-3zm-247 111-9 13v2l-15 2-3 1 2 5 5 9-6 15v2l6-2 7-4 6 1 7 6h2l1-3 2-16 14-11v-2l-15-2-2-15zm36 8-6 10 1 6-2 7-4 2-9 7-3 19-3 3-7 1-4 5-14 23-24 39v1h63l10-5 11-9 10-12 17-28 17-29 8-14 4-11v-10l-3-4-4-1zm86 0-6 9-17 29-45 76-5 9h31l6-9 15-26 17-29 14-24 10-17 10-1-11 20-16 27-7 12-14 45v2h32l3-8 12-42 10-9 9-10 9-14 8-16 2-6v-11l-3-5-7-2zm90 0-12 22-28 49-14 25-14 24-1 3h74l14-26 4-7v-2h-30l-8 13-2 4h-10l15-27 4-7 32-1 8-15v-2l-29-1 8-15 10-18v-2l10 1-8 15v2h30l13-25 5-10zm111 0-13 15-9 11-11 13-9 11-11 13-9 11-11 13-9 11-11 13-9 11v1h39l9-10 9-11 11-13 9-12 13-25 18-33v-2h10l-8 16-14 27-12 22-16 31-5 10h31l10-19 15-29 12-23 14-27 10-19 2-6zm66 0-22 43-10 19-17 33-12 23-2 5h31l15-29 11-22 10-19 14-28 4-7 10-1-20 40-10 19-23 46v1h31l52-104 1-1 10-1-24 48-7 15-8 38v5h39l14-71 9-47v-5zm-421 20-14 12-9 9-8 7-15 16-9 11-10 13-11 18-7 16-3 12v17l4 11 4 6 8 8 11 7 15 6 22 5 21 2h34l26-2 37-5 36-7 32-8 1-2-6-5-1-2-3 1-2 4-8 3h-31l-7-3-3-3-5 2-9 3-6 1h-58l-7-3-10-11-9-11-11-13-6-9 1-8 15-24 17-28 10-16-2-2-12 6-7-1-6-7-1-2 1-9 4-9-1-4zm525 106-11 16-4 6-8 2-17 2v3l10 15-1 8-8 18v2l6-2 15-8 5 1 13 10h3l3-27 17-14 4-4-7-2-12-2-3-2-3-20z" fill="#080808"/>
<path transform="translate(616,178)" d="m0 0h16l26 2 26 5 19 7 13 7 10 8 7 7 6 10 4 12 1 7v9l-2 13-6 18 12-5 20-9h2l-2 4-12 16-10 13 1 4 10 11 7 8 4 6-12-1-21-3h-8l-10 14-14 19-3-1 1-6 2-31-14-1-24-3-2-2 39-17h2l1-34 1-5 5 5 11 12 6 8 2-3 4-13 1-6v-18l-3-11-4-8-9-10-9-6-10-5-17-5-19-3-12-1h-22l-29 2-33 5-34 7-31 8-39 12-30 11v2l8 6 2 3 4-9 4-3h66l6 5 9 11 12 14 4 6 13 79v2l-33 1-5 3-9 10-4 4-10-11-5-5-2-1h-77l-5 5-4 6-7-6-7-4-5-1h-62l-5 3-3 5-4-2-5-4-6-2h-63l-5 4-4 8 7 9 1 4-3 7-10 8-3 1-1 15-3 7-4 2h-5l-2 1-1-3-5-3-2 1-1-3-12 6-7-1-7-8-1-2 1-9 4-9-1-4h-2l-11 9-11 11-8 7-14 15-9 11-10 13-11 18-7 16-3 12v17l4 11 4 6 7 7 11 7 15 6 22 5 21 2h34l26-2 37-5 36-7 32-8 3-1 35 1v1l-9 2-47 16-37 10-38 8-26 4-25 2h-31l-26-3-20-5-19-8-14-10-9-10-8-14-3-11-1-8v-10l2-14 5-16 7-16 11-18 9-12 9-11 12-14 29-29-9-11-12-14-2-4 1-7 15-34 16-37 10-23 5-4h68l10 4 9 10 7-6 14-7 4-1h49l8 3 7 5 4-1 2-5 3-2 12-1 29-12 42-15 36-11 36-9 34-7 29-4zm-440 70-7 14-15 35-17 39-2 7h64l10-2 10-5 9-9 6-12 1-4v-10l-4-6 6-4 8-9 5-12 1-5v-7l-4-6-5-3-5-1zm112 0-10 3-6 4-8 8-8 16-15 39-2 10 2 9 4 4 7 2h46l10-3 8-6 7-8 6-13 14-41 1-12-3-7-5-4-5-1zm73 0-10 28-22 65v2h65l9-2 8-4 9-9 5-11 1-4v-10l-3-5-2-3 8-6 7-14 1-4v-13l-4-6-5-3-5-1zm94 0-3 8-24 81-1 6h34l7-24 15-54v-4h12l-12 44v11l4 27h43l-1-12-13-80-1-3zm-247 111-9 13v2l-15 2-3 1 2 5 5 9-6 15v2l6-2 7-4 6 1 7 6h2l1-3 2-16 14-11v-2l-15-2-2-15z" fill="#100814"/>
<path transform="translate(698,481)" d="m0 0h7l6 4 7 9 2 3 1 10 12 2 5 4 7 10v10l-7 8-11 9-3 2-3 24-3 6-7 4-8-1-12-9-5 1-14 7h-8l-5-3-8-10-1-2v-9l8-18-2-5-3-4-5-11 1-7 7-7 21-3 5-5 8-12zm3 12-11 16-4 6-8 2-17 2v3l10 15-1 8-8 18v2l6-2 15-8 5 1 13 10h3l3-27 17-14 4-4-7-2-12-2-3-2-3-20z" fill="#110915"/>
<path transform="translate(171,180)" d="m0 0 5 1-1 7-4 11v5l6 3 14 3 2 3-4 5-25 5-9 4-12 11-7 8-5 3-4-1 1-7 4-12v-5l-13-4-8-2-1-3 4-4 8-2 19-4 8-4 8-7 7-8 5-5z" fill="#130B17"/>
<path transform="translate(266,384)" d="m0 0h10l-1 4-13 22-34 56-4 7h-11l2-5 13-22 34-56z" fill="#131213"/>
<path transform="translate(203,261)" d="m0 0h11l-1 5-18 44-8 19-1 1h-11l1-6 19-45 7-17z" fill="#19111D"/>
<path transform="translate(389,261)" d="m0 0h12l-2 9-19 59-1 1h-11l1-7z" fill="#170F1B"/>
<path transform="translate(299,261)" d="m0 0h12l-3 10-21 58-1 1h-11l1-7 17-46z" fill="#170F1B"/>
<path transform="translate(778,194)" d="m0 0h2v19l6 2 10 6-3 2-15 3h-3l-2 4-9 12-2 1-1-19-15-8v-2l19-4 5-5z" fill="#180F1C"/>
<path transform="translate(40,531)" d="m0 0h2l1 18 15 8v2l-20 4-12 16h-2v-19l-6-2-10-6 2-2 16-3h3l2-4z" fill="#180F1C"/>
<path transform="translate(221,165)" d="m0 0h3l-2 12 10 2-2 4-14 3-7 6-5 5-3-1 3-11-10-2 1-4 16-4z" fill="#251D29"/>
<path transform="translate(96,204)" d="m0 0h3l-1 7 6 2-2 3-9 2-8 7-1-4 1-4-6-1 1-3 10-3z" fill="#332B36"/>
<path transform="translate(770,268)" d="m0 0" fill="#FEFEFE"/>
</svg>
